<svg id="filled_outline" height="512" viewBox="0 0 512 512" width="512" xmlns="http://www.w3.org/2000/svg" data-name="filled outline"><path d="m64 216h32v24h-32z" fill="#556c80"/><path d="m120 216h32v24h-32z" fill="#556c80"/><path d="m440 464 32-40-16-16-39.086 48.858z" fill="#62798c"/><path d="m48 344h296v32h-296z" fill="#ffa100"/><path d="m272 305.1499a20.53484 20.53484 0 0 1 -4.10986 12.3301l-19.89014 26.52h-72v-120h16l38.33008 34.5 34.86992 31.38a20.56655 20.56655 0 0 1 6.8 15.2699z" fill="#ffbfa1"/><path d="m230.33 258.5-28.33 42.5-26-13v-64h16z" fill="#3d4ede"/><path d="m176 232v128l-72 128h-32l48-144-10.67-32-13.33-40v-40z" fill="#4e62e6"/><path d="m208 192 24 32 56 40 16-16-48-56-16-72z" fill="#ffceb6"/><path d="m96 240v-96l24-32 64-32 40 16 16 24v32l-48 64v24z" fill="#6173e8"/><path d="m184 56h48v-13.57781a18.42218 18.42218 0 0 0 -18.42219-18.42219 18.42223 18.42223 0 0 0 -10.21881 3.094l-19.359 12.906z" fill="#b1712c"/><path d="m24 200h40v56h-40z" fill="#718799"/><path d="m152 200h40v56h-40z" fill="#718799"/><path d="m176 312v48l-72 128h-32l48-144-10.67-32z" fill="#ffceb6"/><path d="m264 376h40v40h-40z" fill="#8098ab"/><path d="m264 416-72 48-24-16 96-64z" fill="#62798c"/><path d="m168 448-24 16v24h48v-24z" fill="#8098ab"/><path d="m304 416 88 48 24-16-112-64z" fill="#62798c"/><path d="m416 448 24 16v24h-48v-24z" fill="#8098ab"/><circle cx="472" cy="408" fill="#8098ab" r="16"/><path d="m232 56v24a24 24 0 0 1 -24 24 24 24 0 0 1 -24-24v-24z" fill="#ffceb6"/><path d="m152 96 15.41113 15.41113a29.32423 29.32423 0 0 1 8.58887 20.73537 29.32423 29.32423 0 0 1 -18.43349 27.22686l-21.56651 8.62664-16 72h-24v-96l24-32z" fill="#ffceb6"/><path d="m344 344h96v32h-96z" fill="#ffc431"/><path d="m120 216h32v24h-32z" fill="#556c80"/><path d="m496 408a23.99681 23.99681 0 0 0 -47.79834-3.05835l-28.68408 35.85474-46.45458-26.54539 30.251-30.251h36.686a8.00008 8.00008 0 0 0 8-8v-32a8.00008 8.00008 0 0 0 -8-8h-175.99976l10.29076-13.72119a28.54713 28.54713 0 0 0 -3.74122-38.34668l-70.54978-63.49487v-1.77026l9-12 16.59961 22.13281a7.99635 7.99635 0 0 0 1.75 1.71l56 40a8.00083 8.00083 0 0 0 10.30762-.853l16-16a8.00074 8.00074 0 0 0 .417-10.86328l-46.69823-54.48153-15.56641-70.04736-.021.00464a7.98328 7.98328 0 0 0 -1.13232-2.70679l-11.96218-17.94323a31.80687 31.80687 0 0 0 5.30591-17.61926v-37.57764a26.42138 26.42138 0 0 0 -41.07812-21.98436l-19.35938 12.90575a7.99943 7.99943 0 0 0 -3.5625 6.65625v35.05566l-59.57812 29.78907a8.00021 8.00021 0 0 0 -2.82227 2.35547l-24 32a8.00222 8.00222 0 0 0 -1.59961 4.7998v64h-16v-8a8.00008 8.00008 0 0 0 -8-8h-40a8.00008 8.00008 0 0 0 -8 8v56a8.00008 8.00008 0 0 0 8 8h40a8.00008 8.00008 0 0 0 8-8v-8h16v24a8.0122 8.0122 0 0 0 .41016 2.52979l20.49047 61.47021h-60.90063a8.00008 8.00008 0 0 0 -8 8v32a8.00008 8.00008 0 0 0 8 8h50.23389l-33.82373 101.47021a8 8 0 0 0 7.58984 10.52979h32a7.99978 7.99978 0 0 0 6.97266-4.07812l58.18872-103.44654 29.48144 29.48145-35.08032 23.387-24 16a7.99943 7.99943 0 0 0 -3.5625 6.65621v24a8.00008 8.00008 0 0 0 8 8h48a8.00008 8.00008 0 0 0 8-8v-19.71875l66.42188-44.28125h35.53833l82.03979 44.749v19.251a8.00008 8.00008 0 0 0 8 8h48a8.00008 8.00008 0 0 0 8-8v-21.1936l28.13647-35.17054a24.03426 24.03426 0 0 0 19.86353-23.63586zm-57.66528 45.27515-5.41944-3.6128 20.85889-26.07373a24.18932 24.18932 0 0 0 4.84814 4.32715zm33.66528-53.27515a8 8 0 1 1 -8 8 8.00917 8.00917 0 0 1 8-8zm-80.41406 54.66113-79.58594-43.41013v-13.46584l88.792 50.73877zm-210.90723-86.66113 2.29395-4.07812a7.99557 7.99557 0 0 0 1.02734-3.92188v-8h152v16zm-48.92771-144h12.249v8h-14.02686zm28.249-16h24v40h-24zm198.66357 198.02258-38.53957-22.02258h60.562zm73.33643-38.02258h-80v-16h80zm-168-62.84912a12.62723 12.62723 0 0 1 -2.50977 7.52832l-17.49023 23.3208h-60v-35.05566l36.42188 18.21093 7.15624-14.31054-13.895-6.94751 18.1748-27.26233 27.98877 25.18982a12.56558 12.56558 0 0 1 4.15331 9.32617zm-44.16016-45.3324-20.57861 30.8678-15.26123-7.63062v-19.05566h8a8.00008 8.00008 0 0 0 8-8v-14.03735zm30.08594-62.61194 43.17871 50.375-5.96972 5.96973-49.47754-35.3418-18.657-24.8761 22.44922-29.93225 6.741 30.33423a8.00614 8.00614 0 0 0 1.73533 3.47119zm-57.92578-133.20654h32v16a16 16 0 0 1 -32 0zm0-19.71826 15.79785-10.53174a10.42171 10.42171 0 0 1 16.20215 8.67236v5.57764h-32zm-13.73169 47.52832a31.95953 31.95953 0 0 0 44.40069 16.61523l9.331 13.99707v26.91114l-34.02222 45.36279a7.97209 7.97209 0 0 0 -5.97778-2.69629h-40a8.00008 8.00008 0 0 0 -8 8v8h-8.6936l7.58715-34.14111 17.64454-7.05762a37.32472 37.32472 0 0 0 12.53027-61.04688l-7.56348-7.563zm-74.26831 54.85644 21.2666-28.3555 25.15332-12.57715 11.334 11.334a21.32435 21.32435 0 0 1 -7.15821 34.87793l-21.5664 8.62647a7.99941 7.99941 0 0 0 -4.83887 5.69238l-14.60744 65.73537h-9.583zm-48 101.3335h-24v-40h24zm16-24h16v8h-16zm32 24h40v8a8.00008 8.00008 0 0 0 8 8h16v40h-52.90039l-11.09961-33.29834zm-48 120v-16h52.90063l-5.33325 16zm43.32129 112h-16.22168l44.49023-133.47021a8.00672 8.00672 0 0 0 0-5.05958l-7.15673-21.47021h47.56689v37.9043zm87.99271-96h62.26416l-37.35839 24.90564zm68.686 14.948v12.77075l-64 42.6665-9.57812-6.38525zm-104 81.052v-11.71875l16-10.66675 16 10.66675v11.71875zm144-72h-24v-24h24zm136 72h-32v-11.71875l16-10.66675 16 10.66675z"/></svg>